<?xml version="1.0" standalone="no"?>
<!DOCTYPE svg PUBLIC "-//W3C//DTD SVG 20010904//EN"
 "http://www.w3.org/TR/2001/REC-SVG-20010904/DTD/svg10.dtd">
<svg version="1.0" xmlns="http://www.w3.org/2000/svg"
 width="294.000000pt" height="197.000000pt" viewBox="0 0 294.000000 197.000000"
 preserveAspectRatio="xMidYMid meet">

<g transform="translate(0.000000,197.000000) scale(0.100000,-0.100000)"
fill="#000000" stroke="none">
<path d="M0 985 l0 -985 1470 0 1470 0 0 985 0 985 -1470 0 -1470 0 0 -985z
m2688 643 l3 -138 -383 -2 -383 -3 -3 -182 -2 -183 330 -2 331 -3 0 -125 0
-125 -330 -3 -331 -2 0 -200 0 -200 395 0 395 0 0 -140 0 -140 -472 0 c-260 0
-578 3 -706 7 l-233 6 -231 321 c-127 177 -235 325 -240 331 -5 5 -46 -28
-103 -85 l-95 -95 0 -237 0 -238 -160 0 -160 0 0 785 0 786 158 -3 157 -3 5
-359 5 -360 319 362 319 362 166 3 c91 1 409 2 706 2 l540 0 3 -137z"/>
<path d="M1345 1438 c-143 -165 -274 -318 -292 -338 l-32 -37 280 -384 c154
-211 286 -391 294 -399 13 -12 15 78 15 723 0 405 -1 737 -2 737 -2 0 -120
-136 -263 -302z"/>
</g>
</svg>
